<?xml version="1.0" encoding="UTF-8" standalone="no"?>
<!-- Generator: Adobe Illustrator 25.0.0, SVG Export Plug-In . SVG Version: 6.00 Build 0)  -->

<svg
   xmlns:dc="http://purl.org/dc/elements/1.1/"
   xmlns:cc="http://creativecommons.org/ns#"
   xmlns:rdf="http://www.w3.org/1999/02/22-rdf-syntax-ns#"
   xmlns:svg="http://www.w3.org/2000/svg"
   xmlns="http://www.w3.org/2000/svg"
   xmlns:sodipodi="http://sodipodi.sourceforge.net/DTD/sodipodi-0.dtd"
   xmlns:inkscape="http://www.inkscape.org/namespaces/inkscape"
   version="1.1"
   id="Layer_1"
   x="0px"
   y="0px"
   viewBox="0 0 1361.6 596.00001"
   xml:space="preserve"
   sodipodi:docname="wisl.svg"
   width="1361.6"
   height="596"
   inkscape:version="0.92.5 (2060ec1f9f, 2020-04-08)"><metadata
   id="metadata3819"><rdf:RDF><cc:Work
       rdf:about=""><dc:format>image/svg+xml</dc:format><dc:type
         rdf:resource="http://purl.org/dc/dcmitype/StillImage" /><dc:title></dc:title></cc:Work></rdf:RDF></metadata><defs
   id="defs3817" /><sodipodi:namedview
   pagecolor="#ffffff"
   bordercolor="#666666"
   borderopacity="1"
   objecttolerance="10"
   gridtolerance="10"
   guidetolerance="10"
   inkscape:pageopacity="0"
   inkscape:pageshadow="2"
   inkscape:window-width="2560"
   inkscape:window-height="1551"
   id="namedview3815"
   showgrid="false"
   inkscape:zoom="1"
   inkscape:cx="870.01915"
   inkscape:cy="207.23716"
   inkscape:window-x="1680"
   inkscape:window-y="25"
   inkscape:window-maximized="1"
   inkscape:current-layer="Layer_1"
   fit-margin-top="0"
   fit-margin-left="0"
   fit-margin-right="0"
   fit-margin-bottom="0" />
<style
   type="text/css"
   id="style3794">
	.st0{display:none;fill:#011904;}
	.st1{fill:#4C54D2;}
</style>
<rect
   class="st0"
   width="2000"
   height="2000"
   id="rect3796"
   x="-3.5"
   y="-914.99988"
   style="display:none;fill:#011904" />
<g
   id="g3812"
   transform="translate(-3.5,-915)">
	<g
   id="g3806">
		<path
   class="st1"
   d="m 820.8,1333.6 11.4,92.9 11.8,-92.9 23.2,-151 h 46.5 l -58.1,325.3 h -46.5 l -23.2,-151 -11.6,-92.9 -11.6,92.9 -23.2,151 H 693 l -58,-325.3 h 46.5 l 23.2,151 11.8,92.9 11.4,-92.9 23.2,-151 h 46.5 z"
   id="path3798"
   inkscape:connector-curvature="0"
   style="fill:#4c54d2" />
		<path
   class="st1"
   d="m 987.6,1182.6 v 325.3 h -46.5 v -325.3 z"
   id="path3800"
   inkscape:connector-curvature="0"
   style="fill:#4c54d2" />
		<path
   class="st1"
   d="m 1110.4,1217.4 c -22.5,0 -34.8,13.2 -34.8,35.4 0,20.1 10.5,35.8 23.2,45.9 l 58.1,46.5 c 23.8,19.2 46.5,48.3 46.5,89.8 0,48.3 -32.5,76 -81.3,76 -60.8,0 -89.5,-39.4 -92.9,-96.2 l 46.5,-11.6 c 1.6,33.6 11.3,69.7 46.5,69.7 23.2,0 34.8,-11.6 34.8,-34.8 0,-29.2 -18,-44.5 -34.8,-58.1 l -58.1,-46.5 c -20,-15.6 -35,-41.4 -35,-75.9 0,-48.3 32.7,-78.4 81.5,-78.4 57.5,0 88.8,31.8 92.9,84.6 l -46.5,11.6 c -2.1,-30.7 -13.7,-58 -46.6,-58 z"
   id="path3802"
   inkscape:connector-curvature="0"
   style="fill:#4c54d2" />
		<path
   class="st1"
   d="m 1237.3,1182.6 h 46.5 V 1473 h 81.3 v 34.8 h -127.8 z"
   id="path3804"
   inkscape:connector-curvature="0"
   style="fill:#4c54d2" />
	</g>
	<g
   id="g3810">
		<path
   class="st1"
   d="M 635,1182.6 485.9,924.5 c -3.4,-5.8 -9.6,-9.5 -16.4,-9.5 H 364 c -6.8,0 -13.1,3.6 -16.4,9.5 -3.4,5.9 -3.4,13.1 0,19 l 131,227 C 375.2,1153.9 295.9,1064.1 295.9,956.2 V 934 h -0.1 c 0,-3.2 -0.9,-6.5 -2.5,-9.4 -3.4,-5.8 -9.6,-9.5 -16.4,-9.5 H 171.5 c -6.7,0 -13,3.6 -16.4,9.5 l -96.3,166.8 c -0.2,0.2 -0.3,0.5 -0.4,0.7 l -52.3,90.6 c -1.7,2.9 -2.6,6.2 -2.6,9.5 0,3.3 0.9,6.5 2.6,9.5 l 52.3,90.6 c 0.1,0.3 0.3,0.5 0.4,0.8 l 96.3,166.8 c 3.4,5.8 9.7,9.5 16.4,9.5 H 277 c 6.8,0 13,-3.6 16.4,-9.5 1.7,-2.9 2.5,-6.2 2.5,-9.5 v -22.3 c 0,-108 79.3,-197.8 182.7,-214.3 l -131,227 c -1.7,2.9 -2.6,6.2 -2.6,9.5 0,3.3 0.9,6.5 2.6,9.5 3.4,5.8 9.6,9.5 16.4,9.5 h 105.5 c 6.7,0 13,-3.6 16.4,-9.5 L 635,1201.6 c 3.4,-5.9 3.4,-13.1 0,-19 z M 182.4,952.9 h 61.7 L 127.9,1154.2 97,1100.7 Z m 0,478.4 L 92,1274.7 c -0.2,-0.3 -0.3,-0.5 -0.4,-0.7 l -47.3,-81.9 30.8,-53.4 169,292.7 h -61.7 z m 79.2,-45.6 -111.8,-193.6 111.8,-193.7 c 14.8,87.9 74.7,160.7 155.1,193.6 -80.4,33 -140.3,105.8 -155.1,193.7 z m 197,45.6 H 396.9 L 513.1,1230 544,1283.5 Z M 565.8,1245.5 396.9,952.8 h 61.7 l 138.1,239.3 z"
   id="path3808"
   inkscape:connector-curvature="0"
   style="fill:#4c54d2" />
	</g>
</g>
</svg>